<?xml version="1.0" encoding="UTF-8"?>
<svg id="Layer_1" data-name="Layer 1" xmlns="http://www.w3.org/2000/svg" xmlns:xlink="http://www.w3.org/1999/xlink" viewBox="220 360 1520 1200">
  <defs>
    <style>
      .cls-1 {
        clip-path: url(#clippath-6);
      }

      .cls-2 {
        clip-path: url(#clippath-7);
      }

      .cls-3 {
        clip-path: url(#clippath-4);
      }

      .cls-4 {
        fill: url(#linear-gradient-2);
      }

      .cls-5 {
        clip-path: url(#clippath-9);
      }

      .cls-6 {
        clip-path: url(#clippath-10);
      }

      .cls-7 {
        clip-path: url(#clippath-11);
      }

      .cls-8 {
        fill: none;
      }

      .cls-9 {
        fill: url(#linear-gradient-4);
      }

      .cls-10 {
        fill: #6c9050;
      }

      .cls-11 {
        fill: url(#linear-gradient-3);
      }

      .cls-12 {
        clip-path: url(#clippath-1);
      }

      .cls-13 {
        fill: url(#linear-gradient-5);
      }

      .cls-14 {
        clip-path: url(#clippath-5);
      }

      .cls-15 {
        clip-path: url(#clippath-8);
      }

      .cls-16 {
        clip-path: url(#clippath-3);
      }

      .cls-17 {
        clip-path: url(#clippath-12);
      }

      .cls-18 {
        fill: url(#linear-gradient-6);
      }

      .cls-19 {
        clip-path: url(#clippath-2);
      }

      .cls-20 {
        fill: #6a8e4e;
      }

      .cls-21 {
        fill: #2d473e;
      }

      .cls-22 {
        clip-path: url(#clippath-13);
      }

      .cls-23 {
        fill: url(#linear-gradient);
      }

      .cls-24 {
        clip-path: url(#clippath);
      }
    </style>
    <clipPath id="clippath">
      <rect class="cls-8" x="570.74" y="482.23" width="1035.92" height="1035.85"/>
    </clipPath>
    <clipPath id="clippath-1">
      <path class="cls-8" d="M1126.73,681.67c21.87-30.32,48.57-34.76,77.91-25.01-20.21,26.42-45.22,37.8-77.91,25.01M1236.15,647.84c47.88-40.39,93.1-36.77,136.85-8.99-43.6,34.73-88.88,43.1-136.85,8.99ZM1401.71,639.28c77.1-2.33,111.17,36.74,121.44,98.68-69.89-1.03-114.54-29.02-121.44-98.68ZM1530.32,757.07c27.75,25.04,29.27,52.06,16.37,80.17-24.05-22.97-32.65-49.06-16.37-80.17ZM1280.79,743.33c34.1-15.33,59.44-5.83,79.98,17.29-30.72,12.78-58.06,10.14-79.98-17.29ZM1392.46,768.73c61.66-11.04,99.01,14.71,123.01,60.64-55.12,8.28-98.53-7.11-123.01-60.64ZM1540.12,844.1c67.93,36.53,77.9,87.41,55.83,146.19-60.02-35.84-84.69-82.4-55.83-146.19ZM1592.61,1010.42c11.51,35.56-.69,59.72-25.91,77.61-9.34-31.92-3.74-58.81,25.91-77.61ZM1177.72,735.38c32.21-18.97,58.44-12.32,81.4,8.4-29.12,16.08-56.59,16.45-81.4-8.4ZM1383.39,873.76c37.19,3.78,54.39,24.67,60.62,54.97-32.98-4.3-55.35-20.26-60.62-54.97ZM1467.39,951.59c58.92,21.27,78.39,62.24,76.21,114.02-51.88-20.4-81.77-55.42-76.21-114.02ZM1557.58,1090.7c40.57,65.6,23.76,114.64-24.74,154.52-34.05-61.05-32.14-113.71,24.74-154.52ZM1519.89,1260.97c-7.81,36.55-30.45,51.37-61.24,54.26,7.86-32.32,26.16-52.8,61.24-54.26ZM1298.1,815.34c37.38-.33,56.77,18.55,66.29,47.97-33.26-.64-57.23-14.04-66.29-47.97ZM1407.02,1038c30.32,21.87,34.77,48.57,25.01,77.91-26.42-20.21-37.8-45.22-25.01-77.91ZM1440.85,1147.42c40.39,47.88,36.77,93.1,8.99,136.85-34.73-43.6-43.1-88.88-8.99-136.85ZM1449.41,1312.98c2.33,77.1-36.74,111.17-98.68,121.44,1.03-69.9,29.01-114.54,98.68-121.44ZM1331.62,1441.59c-25.04,27.75-52.06,29.27-80.17,16.38,22.97-24.05,49.06-32.65,80.17-16.38ZM1362.37,944.77c32.54,18.41,39.89,44.44,33.43,74.69-28.48-17.18-42.55-40.78-33.43-74.69ZM1345.36,1192.07c15.32,34.09,5.82,59.44-17.29,79.97-12.78-30.71-10.14-58.06,17.29-79.97ZM1319.95,1303.73c11.04,61.66-14.71,99.02-60.64,123.01-8.27-55.12,7.11-98.53,60.64-123.01ZM1244.58,1451.4c-36.53,67.94-87.41,77.9-146.19,55.83,35.84-60.02,82.41-84.69,146.19-55.83ZM1078.28,1503.89c-35.56,11.51-59.72-.69-77.61-25.91,31.92-9.35,58.8-3.76,77.61,25.91ZM1353.31,1089c18.97,32.21,12.32,58.43-8.4,81.4-16.07-29.12-16.45-56.59,8.4-81.4ZM1214.93,1294.66c-3.78,37.19-24.67,54.39-54.96,60.61,4.29-32.98,20.26-55.35,54.96-60.61ZM1137.1,1378.66c-21.28,58.92-62.25,78.39-114.02,76.21,20.4-51.88,55.42-81.77,114.02-76.21ZM997.99,1468.85c-65.6,40.57-114.65,23.77-154.52-24.73,61.05-34.06,113.71-32.15,154.52,24.73ZM827.72,1431.16c-36.56-7.81-51.37-30.46-54.26-61.24,32.32,7.86,52.8,26.16,54.26,61.24ZM1273.35,1209.37c.33,37.38-18.54,56.77-47.97,66.3.64-33.26,14.05-57.24,47.97-66.3ZM1050.69,1318.29c-21.87,30.32-48.57,34.76-77.91,25.01,20.22-26.42,45.21-37.8,77.91-25.01ZM941.27,1352.11c-47.88,40.4-93.09,36.78-136.85,8.99,43.6-34.73,88.89-43.1,136.85-8.99ZM775.71,1360.68c-77.11,2.33-111.17-36.74-121.44-98.68,69.89,1.03,114.54,29.02,121.44,98.68ZM647.1,1242.9c-27.75-25.04-29.27-52.06-16.37-80.17,24.05,22.97,32.65,49.06,16.37,80.17ZM1143.92,1273.64c-18.4,32.54-44.45,39.89-74.69,33.43,17.18-28.48,40.78-42.55,74.69-33.43ZM896.62,1256.64c-34.09,15.32-59.44,5.82-79.97-17.3,30.71-12.77,58.05-10.14,79.97,17.3ZM784.96,1231.22c-61.67,11.05-99.02-14.7-123.01-60.64,55.12-8.27,98.53,7.11,123.01,60.64ZM637.3,1155.85c-67.94-36.53-77.91-87.4-55.83-146.18,60.01,35.84,84.68,82.4,55.83,146.18ZM584.81,989.55c-11.52-35.56.68-59.72,25.91-77.62,9.35,31.92,3.74,58.81-25.91,77.62ZM999.69,1264.57c-32.2,18.97-58.43,12.33-81.39-8.39,29.12-16.07,56.59-16.45,81.39,8.39ZM794.03,1126.21c-37.19-3.78-54.39-24.68-60.61-54.97,32.98,4.3,55.35,20.25,60.61,54.97ZM710.04,1048.36c-58.93-21.26-78.4-62.24-76.21-114.02,51.88,20.4,81.76,55.42,76.21,114.02ZM619.84,909.26c-40.58-65.6-23.77-114.65,24.73-154.51,34.05,61.05,32.15,113.7-24.73,154.51ZM657.53,738.99c7.81-36.56,30.45-51.38,61.24-54.27-7.86,32.32-26.16,52.81-61.24,54.27ZM879.32,1184.61c-37.38.34-56.77-18.54-66.29-47.96,33.24.64,57.23,14.04,66.29,47.96ZM770.4,961.96c-30.31-21.87-34.76-48.57-25.01-77.91,26.42,20.21,37.8,45.21,25.01,77.91ZM736.58,852.54c-40.41-47.88-36.78-93.1-8.99-136.85,34.73,43.6,43.1,88.89,8.99,136.85ZM728.02,686.98c-2.34-77.11,36.73-111.17,98.68-121.45-1.04,69.9-29.02,114.55-98.68,121.45ZM845.8,558.37c25.04-27.75,52.06-29.27,80.17-16.38-22.97,24.06-49.06,32.65-80.17,16.38ZM815.06,1055.19c-32.54-18.4-39.9-44.45-33.44-74.69,28.47,17.18,42.55,40.78,33.44,74.69ZM832.05,807.9c-15.32-34.09-5.82-59.44,17.3-79.98,12.78,30.71,10.14,58.06-17.3,79.98ZM857.47,696.23c-11.05-61.67,14.7-99.02,60.63-123.02,8.28,55.13-7.11,98.53-60.63,123.02ZM932.84,548.57c36.52-67.94,87.4-77.91,146.18-55.83-35.84,60.01-82.4,84.69-146.18,55.83ZM1099.15,496.08c35.56-11.51,59.72.69,77.61,25.91-31.92,9.35-58.81,3.75-77.61-25.91ZM824.12,910.97c-18.98-32.21-12.33-58.44,8.39-81.4,16.07,29.11,16.45,56.59-8.39,81.4ZM962.48,705.31c3.78-37.19,24.68-54.39,54.97-60.61-4.29,32.97-20.26,55.35-54.97,60.61ZM1040.32,621.31c21.27-58.93,62.24-78.4,114.02-76.22-20.4,51.89-55.43,81.77-114.02,76.22ZM1179.43,531.12c65.6-40.58,114.64-23.78,154.51,24.73-61.04,34.05-113.7,32.14-154.51-24.73ZM1349.7,568.8c36.55,7.81,51.37,30.46,54.26,61.24-32.32-7.86-52.81-26.16-54.26-61.24ZM904.08,790.59c-.34-37.38,18.54-56.77,47.96-66.3-.64,33.25-14.05,57.24-47.96,66.3ZM1033.5,726.32c18.41-32.54,44.44-39.89,74.69-33.43-17.18,28.48-40.78,42.54-74.69,33.43Z"/>
    </clipPath>
    <linearGradient id="linear-gradient" x1="547.35" y1="770.04" x2="1614.77" y2="736.66" gradientUnits="userSpaceOnUse">
      <stop offset="0" stop-color="#6a8e4e"/>
      <stop offset=".03" stop-color="#6a8e4e"/>
      <stop offset=".12" stop-color="#6a8e4e"/>
      <stop offset=".19" stop-color="#6a8e4e"/>
      <stop offset=".22" stop-color="#6a8e4e"/>
      <stop offset=".23" stop-color="#6a8e4e"/>
      <stop offset=".24" stop-color="#6a8e4e"/>
      <stop offset=".25" stop-color="#6b8f4f"/>
      <stop offset=".25" stop-color="#6b8f4f"/>
      <stop offset=".25" stop-color="#6c904f"/>
      <stop offset=".26" stop-color="#6c9050"/>
      <stop offset=".26" stop-color="#6d9150"/>
      <stop offset=".27" stop-color="#6d9150"/>
      <stop offset=".27" stop-color="#6e9251"/>
      <stop offset=".27" stop-color="#6e9251"/>
      <stop offset=".28" stop-color="#6f9352"/>
      <stop offset=".28" stop-color="#6f9352"/>
      <stop offset=".29" stop-color="#709352"/>
      <stop offset=".29" stop-color="#709453"/>
      <stop offset=".29" stop-color="#719453"/>
      <stop offset=".3" stop-color="#719553"/>
      <stop offset=".3" stop-color="#729554"/>
      <stop offset=".3" stop-color="#729654"/>
      <stop offset=".31" stop-color="#739655"/>
      <stop offset=".31" stop-color="#739755"/>
      <stop offset=".32" stop-color="#749755"/>
      <stop offset=".32" stop-color="#749856"/>
      <stop offset=".32" stop-color="#759856"/>
      <stop offset=".33" stop-color="#759956"/>
      <stop offset=".33" stop-color="#769957"/>
      <stop offset=".34" stop-color="#769a57"/>
      <stop offset=".34" stop-color="#779a57"/>
      <stop offset=".34" stop-color="#779a58"/>
      <stop offset=".35" stop-color="#789b58"/>
      <stop offset=".35" stop-color="#789b59"/>
      <stop offset=".36" stop-color="#799c59"/>
      <stop offset=".36" stop-color="#799c59"/>
      <stop offset=".36" stop-color="#7a9d5a"/>
      <stop offset=".37" stop-color="#7a9d5a"/>
      <stop offset=".37" stop-color="#7b9e5a"/>
      <stop offset=".38" stop-color="#7b9e5b"/>
      <stop offset=".38" stop-color="#7c9f5b"/>
      <stop offset=".38" stop-color="#7c9f5c"/>
      <stop offset=".39" stop-color="#7da05c"/>
      <stop offset=".39" stop-color="#7da05c"/>
      <stop offset=".39" stop-color="#7ea15d"/>
      <stop offset=".4" stop-color="#7fa15d"/>
      <stop offset=".4" stop-color="#7fa25d"/>
      <stop offset=".41" stop-color="#80a25e"/>
      <stop offset=".41" stop-color="#80a25e"/>
      <stop offset=".41" stop-color="#81a35e"/>
      <stop offset=".42" stop-color="#81a35f"/>
      <stop offset=".42" stop-color="#82a45f"/>
      <stop offset=".43" stop-color="#82a460"/>
      <stop offset=".43" stop-color="#83a560"/>
      <stop offset=".43" stop-color="#83a560"/>
      <stop offset=".44" stop-color="#84a661"/>
      <stop offset=".44" stop-color="#84a661"/>
      <stop offset=".45" stop-color="#85a761"/>
      <stop offset=".45" stop-color="#85a762"/>
      <stop offset=".45" stop-color="#86a862"/>
      <stop offset=".46" stop-color="#86a863"/>
      <stop offset=".46" stop-color="#87a963"/>
      <stop offset=".46" stop-color="#87a963"/>
      <stop offset=".47" stop-color="#88aa64"/>
      <stop offset=".47" stop-color="#88aa64"/>
      <stop offset=".48" stop-color="#89aa64"/>
      <stop offset=".48" stop-color="#89ab65"/>
      <stop offset=".48" stop-color="#8aab65"/>
      <stop offset=".49" stop-color="#8aac66"/>
      <stop offset=".49" stop-color="#8bac66"/>
      <stop offset=".5" stop-color="#8bad66"/>
      <stop offset=".5" stop-color="#8cad67"/>
      <stop offset=".5" stop-color="#8cae67"/>
      <stop offset=".51" stop-color="#8dae67"/>
      <stop offset=".51" stop-color="#8daf68"/>
      <stop offset=".52" stop-color="#8eaf68"/>
      <stop offset=".52" stop-color="#8eb068"/>
      <stop offset=".52" stop-color="#8fb069"/>
      <stop offset=".53" stop-color="#8fb169"/>
      <stop offset=".53" stop-color="#90b16a"/>
      <stop offset=".54" stop-color="#90b16a"/>
      <stop offset=".54" stop-color="#91b26a"/>
      <stop offset=".54" stop-color="#91b26b"/>
      <stop offset=".55" stop-color="#92b36b"/>
      <stop offset=".55" stop-color="#92b36b"/>
      <stop offset=".55" stop-color="#93b46c"/>
      <stop offset=".56" stop-color="#93b46c"/>
      <stop offset=".56" stop-color="#94b56d"/>
      <stop offset=".57" stop-color="#94b56d"/>
      <stop offset=".57" stop-color="#95b66d"/>
      <stop offset=".57" stop-color="#95b66e"/>
      <stop offset=".58" stop-color="#96b76e"/>
      <stop offset=".58" stop-color="#96b76e"/>
      <stop offset=".59" stop-color="#97b86f"/>
      <stop offset=".59" stop-color="#97b86f"/>
      <stop offset=".59" stop-color="#98b970"/>
      <stop offset=".6" stop-color="#98b970"/>
      <stop offset=".6" stop-color="#99b970"/>
      <stop offset=".61" stop-color="#99ba71"/>
      <stop offset=".61" stop-color="#9aba71"/>
      <stop offset=".61" stop-color="#9abb71"/>
      <stop offset=".62" stop-color="#9bbb72"/>
      <stop offset=".62" stop-color="#9bbc72"/>
      <stop offset=".62" stop-color="#9cbc72"/>
      <stop offset=".63" stop-color="#9cbd73"/>
      <stop offset=".63" stop-color="#9dbd73"/>
      <stop offset=".64" stop-color="#9dbe74"/>
      <stop offset=".64" stop-color="#9ebe74"/>
      <stop offset=".64" stop-color="#9ebf74"/>
      <stop offset=".65" stop-color="#9fbf75"/>
      <stop offset=".65" stop-color="#9fc075"/>
      <stop offset=".66" stop-color="#a0c075"/>
      <stop offset=".66" stop-color="#a0c076"/>
      <stop offset=".66" stop-color="#a1c176"/>
      <stop offset=".67" stop-color="#a1c177"/>
      <stop offset=".67" stop-color="#a2c277"/>
      <stop offset=".68" stop-color="#a2c277"/>
      <stop offset=".68" stop-color="#a3c378"/>
      <stop offset=".68" stop-color="#a3c378"/>
      <stop offset=".69" stop-color="#a4c478"/>
      <stop offset=".69" stop-color="#a4c479"/>
      <stop offset=".7" stop-color="#a5c579"/>
      <stop offset=".7" stop-color="#a5c579"/>
      <stop offset=".7" stop-color="#a6c67a"/>
      <stop offset=".71" stop-color="#a6c67a"/>
      <stop offset=".71" stop-color="#a7c77b"/>
      <stop offset=".71" stop-color="#a7c77b"/>
      <stop offset=".72" stop-color="#a8c87b"/>
      <stop offset=".72" stop-color="#a8c87c"/>
      <stop offset=".73" stop-color="#a9c87c"/>
      <stop offset=".73" stop-color="#a9c97c"/>
      <stop offset=".73" stop-color="#aac97d"/>
      <stop offset=".74" stop-color="#aaca7d"/>
      <stop offset=".74" stop-color="#abca7e"/>
      <stop offset=".75" stop-color="#abcb7e"/>
      <stop offset=".75" stop-color="#accb7e"/>
      <stop offset=".75" stop-color="#accc7f"/>
      <stop offset=".76" stop-color="#adcc7f"/>
      <stop offset=".76" stop-color="#adcd7f"/>
      <stop offset=".77" stop-color="#aecd80"/>
      <stop offset=".77" stop-color="#aece80"/>
      <stop offset=".77" stop-color="#afce81"/>
      <stop offset=".78" stop-color="#afcf81"/>
      <stop offset=".78" stop-color="#b0cf81"/>
      <stop offset=".79" stop-color="#b0d082"/>
      <stop offset=".79" stop-color="#b1d082"/>
      <stop offset=".8" stop-color="#b1d082"/>
      <stop offset=".81" stop-color="#b1d082"/>
      <stop offset=".88" stop-color="#b1d082"/>
      <stop offset=".97" stop-color="#b1d082"/>
      <stop offset="1" stop-color="#b1d082"/>
    </linearGradient>
    <linearGradient id="linear-gradient-2" x1="557.35" y1="1089.87" x2="1624.77" y2="1056.49" xlink:href="#linear-gradient"/>
    <linearGradient id="linear-gradient-3" x1="555.07" y1="1016.85" x2="1622.48" y2="983.46" xlink:href="#linear-gradient"/>
    <linearGradient id="linear-gradient-4" x1="560.97" y1="1205.7" x2="1628.39" y2="1172.31" xlink:href="#linear-gradient"/>
    <clipPath id="clippath-2">
      <rect class="cls-8" x="669.33" y="1186.67" width="233.33" height="165.33"/>
    </clipPath>
    <clipPath id="clippath-3">
      <rect class="cls-8" x="754.13" y="1154.42" width="63" height="229" transform="translate(-704.16 1357.74) rotate(-61.65)"/>
    </clipPath>
    <clipPath id="clippath-4">
      <rect class="cls-8" x="526.95" y="601.92" width="1059" height="1036" transform="translate(-430.82 1517.84) rotate(-61.65)"/>
    </clipPath>
    <clipPath id="clippath-5">
      <rect class="cls-8" x="538.29" y="601.76" width="1036.07" height="1036.06" transform="translate(-430.78 1517.65) rotate(-61.65)"/>
    </clipPath>
    <clipPath id="clippath-6">
      <path class="cls-8" d="M794.15,935.2c-16.3-33.64-7.53-59.24,14.98-80.44,13.65,30.33,11.8,57.74-14.98,80.44M816.33,822.84c-12.81-61.32,11.85-99.39,57.07-124.7,9.86,54.86-4.28,98.69-57.07,124.7ZM887.42,673.08c34.56-68.96,85.13-80.39,144.52-60.02-34.1,61.02-79.93,87.02-144.52,60.02ZM1052.16,615.82c35.22-12.53,59.71-1.04,78.32,23.66-31.64,10.26-58.68,5.43-78.32-23.66ZM921.57,828.9c2.71-37.29,23.1-55.07,53.2-62.18-3.34,33.1-18.65,55.91-53.2,62.18ZM996.96,742.69c19.57-59.51,59.96-80.15,111.78-79.46-18.9,52.45-53.05,83.33-111.78,79.46ZM1133.41,648.53c64.41-42.44,113.91-27.05,155.16,20.28-60.04,35.8-112.73,35.4-155.16-20.28ZM1304.7,681.31c36.76,6.76,52.22,28.96,56,59.66-32.53-6.94-53.54-24.63-56-59.66ZM865.63,915.83c-1.4-37.36,16.91-57.28,46.05-67.65.32,33.26-12.4,57.61-46.05,67.65ZM1085.07,800.55c20.99-30.94,47.54-36.15,77.16-27.24-19.45,26.98-44.11,39.09-77.16,27.24ZM1193.46,763.58c46.7-41.75,92.01-39.43,136.53-12.93-42.58,35.97-87.6,45.65-136.53,12.93ZM1358.71,750.26c77-4.55,112.18,33.53,124.24,95.15-69.9.97-115.33-25.71-124.24-95.15ZM1490.67,864.3c28.46,24.23,30.74,51.19,18.67,79.66-24.71-22.27-34.05-48.1-18.67-79.66ZM993.16,847.86c17.46-33.05,43.28-41.15,73.7-35.56-16.36,28.96-39.54,43.7-73.7,35.56ZM1240.84,857.74c33.64-16.3,59.24-7.54,80.44,14.98-30.33,13.65-57.75,11.8-80.44-14.98ZM1353.2,879.92c61.32-12.8,99.4,11.86,124.7,57.08-54.86,9.86-98.69-4.28-124.7-57.08ZM1502.96,951.02c68.96,34.56,80.39,85.12,60.02,144.52-61.02-34.1-87.03-79.93-60.02-144.52ZM1560.22,1115.74c12.53,35.22,1.03,59.71-23.66,78.33-10.26-31.64-5.43-58.68,23.66-78.33ZM1137.59,852.77c31.65-19.9,58.06-14,81.6,6.05-28.65,16.91-56.09,18.08-81.6-6.05ZM1347.15,985.17c37.29,2.7,55.08,23.1,62.18,53.19-33.09-3.34-55.91-18.66-62.18-53.19ZM1433.35,1060.55c59.51,19.57,80.16,59.97,79.46,111.78-52.44-18.9-83.33-53.05-79.46-111.78ZM1527.52,1197.01c42.44,64.41,27.05,113.91-20.29,155.17-35.79-60.05-35.4-112.74,20.29-155.17ZM1494.74,1368.29c-6.76,36.77-28.97,52.23-59.66,56.01,6.93-32.54,24.62-53.54,59.66-56.01ZM1260.22,929.23c37.35-1.41,57.28,16.9,67.65,46.04-33.26.32-57.62-12.4-67.65-46.04ZM1375.49,1148.67c30.94,20.98,36.15,47.55,27.24,77.16-26.98-19.44-39.09-44.11-27.24-77.16ZM1412.46,1257.06c41.75,46.7,39.43,92.01,12.92,136.54-35.97-42.59-45.65-87.61-12.92-136.54ZM1425.78,1422.31c4.55,77-33.53,112.18-95.15,124.23-.98-69.9,25.71-115.33,95.15-124.23ZM1311.75,1554.26c-24.23,28.47-51.2,30.74-79.66,18.67,22.27-24.7,48.09-34.05,79.66-18.67ZM1328.18,1056.76c33.05,17.46,41.15,43.27,35.56,73.7-28.96-16.35-43.7-39.54-35.56-73.7ZM1318.3,1304.44c16.3,33.64,7.53,59.24-14.99,80.44-13.65-30.33-11.8-57.74,14.99-80.44ZM1296.11,1416.79c12.82,61.32-11.84,99.39-57.07,124.7-9.85-54.86,4.29-98.69,57.07-124.7ZM1225.03,1566.56c-34.56,68.96-85.12,80.39-144.52,60.02,34.09-61.02,79.93-87.03,144.52-60.02ZM1060.3,1623.81c-35.21,12.53-59.71,1.04-78.33-23.66,31.64-10.27,58.68-5.44,78.33,23.66ZM1323.27,1201.18c19.9,31.65,14,58.06-6.04,81.6-16.9-28.65-18.08-56.09,6.04-81.6ZM1190.88,1410.74c-2.7,37.28-23.1,55.07-53.2,62.17,3.34-33.09,18.65-55.91,53.2-62.17ZM1115.48,1496.94c-19.56,59.52-59.96,80.16-111.78,79.46,18.9-52.44,53.05-83.33,111.78-79.46ZM979.04,1591.1c-64.42,42.45-113.92,27.06-155.16-20.28,60.04-35.8,112.73-35.4,155.16,20.28ZM807.75,1558.32c-36.76-6.75-52.23-28.96-56-59.65,32.53,6.93,53.53,24.63,56,59.65ZM1246.81,1323.81c1.41,37.35-16.9,57.28-46.03,67.65-.32-33.26,12.39-57.61,46.03-67.65ZM1027.38,1439.09c-20.99,30.93-47.55,36.14-77.16,27.24,19.44-26.99,44.1-39.1,77.16-27.24ZM918.98,1476.05c-46.69,41.77-92.01,39.44-136.53,12.93,42.58-35.97,87.6-45.64,136.53-12.93ZM753.73,1489.36c-77,4.56-112.18-33.52-124.23-95.14,69.89-.98,115.33,25.71,124.23,95.14ZM621.79,1375.34c-28.46-24.23-30.76-51.19-18.68-79.67,24.71,22.27,34.05,48.1,18.68,79.67ZM1119.28,1391.77c-17.45,33.05-43.28,41.16-73.69,35.57,16.35-28.96,39.54-43.7,73.69-35.57ZM871.6,1381.9c-33.64,16.3-59.24,7.53-80.44-14.99,30.33-13.65,57.74-11.8,80.44,14.99ZM759.26,1359.7c-61.32,12.82-99.4-11.84-124.7-57.07,54.86-9.85,98.69,4.28,124.7,57.07ZM609.49,1288.61c-68.97-34.56-80.4-85.12-60.02-144.51,61.02,34.09,87.03,79.93,60.02,144.51ZM552.23,1123.89c-12.53-35.21-1.04-59.71,23.67-78.33,10.26,31.64,5.43,58.68-23.67,78.33ZM974.86,1386.86c-31.65,19.9-58.06,14.01-81.6-6.04,28.64-16.9,56.09-18.08,81.6,6.04ZM765.31,1254.47c-37.28-2.7-55.07-23.1-62.17-53.2,33.09,3.34,55.91,18.65,62.17,53.2ZM679.1,1179.08c-59.52-19.56-80.16-59.96-79.46-111.78,52.44,18.9,83.33,53.05,79.46,111.78ZM584.95,1042.63c-42.45-64.41-27.06-113.91,20.28-155.16,35.79,60.04,35.4,112.73-20.28,155.16ZM617.72,871.34c6.76-36.76,28.96-52.23,59.66-56-6.93,32.53-24.63,53.54-59.66,56ZM852.24,1310.4c-37.36,1.41-57.29-16.9-67.66-46.03,33.26-.32,57.61,12.39,67.66,46.03ZM736.95,1090.97c-30.93-20.99-36.14-47.55-27.24-77.16,26.98,19.44,39.09,44.1,27.24,77.16ZM699.99,982.58c-41.76-46.7-39.44-92.02-12.93-136.54,35.97,42.59,45.64,87.61,12.93,136.54ZM686.68,817.33c-4.56-77.01,33.52-112.18,95.14-124.23.98,69.89-25.71,115.32-95.14,124.23ZM800.7,685.38c24.23-28.45,51.2-30.74,79.67-18.67-22.27,24.71-48.1,34.05-79.67,18.67ZM784.28,1182.87c-33.05-17.45-41.16-43.28-35.57-73.69,28.96,16.35,43.71,39.55,35.57,73.69ZM789.17,1038.45c-19.9-31.65-14-58.06,6.05-81.6,16.91,28.65,18.08,56.09-6.05,81.6Z"/>
    </clipPath>
    <clipPath id="clippath-7">
      <rect class="cls-8" x="526.91" y="590.51" width="1058.63" height="1058.63" transform="translate(-430.85 1517.59) rotate(-61.65)"/>
    </clipPath>
    <linearGradient id="linear-gradient-5" x1="1516.7" y1="1246.25" x2="2257.8" y2="1223.07" gradientTransform="translate(853.18 2066.26) rotate(-61.65) scale(.35 -.35)" gradientUnits="userSpaceOnUse">
      <stop offset="0" stop-color="#6a8e4e"/>
      <stop offset=".03" stop-color="#6a8e4e"/>
      <stop offset=".25" stop-color="#6a8e4e"/>
      <stop offset=".38" stop-color="#6a8e4e"/>
      <stop offset=".44" stop-color="#6a8e4e"/>
      <stop offset=".47" stop-color="#6a8e4e"/>
      <stop offset=".5" stop-color="#6b8f4f"/>
      <stop offset=".53" stop-color="#6c9050"/>
      <stop offset=".56" stop-color="#6d9150"/>
      <stop offset=".59" stop-color="#6e9251"/>
      <stop offset=".62" stop-color="#6f9352"/>
      <stop offset=".66" stop-color="#709452"/>
      <stop offset=".69" stop-color="#719553"/>
      <stop offset=".72" stop-color="#729554"/>
      <stop offset=".75" stop-color="#739655"/>
      <stop offset=".78" stop-color="#749755"/>
      <stop offset=".81" stop-color="#759856"/>
      <stop offset=".84" stop-color="#769957"/>
      <stop offset=".88" stop-color="#779a58"/>
      <stop offset=".91" stop-color="#789b58"/>
      <stop offset=".94" stop-color="#799c59"/>
      <stop offset=".97" stop-color="#7a9d5a"/>
      <stop offset=".97" stop-color="#7b9d5a"/>
      <stop offset="1" stop-color="#7b9e5a"/>
    </linearGradient>
    <clipPath id="clippath-8">
      <rect class="cls-8" x="313.33" y="765.33" width="932" height="502.67"/>
    </clipPath>
    <clipPath id="clippath-9">
      <rect class="cls-8" x="773.33" y="1051.15" width="71.45" height="126.79"/>
    </clipPath>
    <clipPath id="clippath-10">
      <rect class="cls-8" x="716" y="1058.67" width="54.67" height="96"/>
    </clipPath>
    <clipPath id="clippath-11">
      <path class="cls-8" d="M728.93,1058.83c-1.21,6.07,1.82,12.33,6.2,16.7,4.37,4.38,9.96,7.29,15.31,10.41s10.67,6.68,14.04,11.88c2.93,4.53,4.11,9.94,4.73,15.3.74,6.48.64,13.29-1.43,19.41-1.5-3.68-3.45-7.21-5.68-10.49-4.37-6.48-9.75-12.2-15.11-17.88-6.26-6.64-12.51-13.28-18.77-19.92,6.47,12.15,16.52,21.92,25.01,32.77,8.49,10.84,15.72,23.78,14.93,37.53-.63-7.03-6.34-12.61-12.53-16.02-6.19-3.4-13.13-5.29-19.24-8.84-11.54-6.76-19.31-19.56-19.91-32.9-.6-13.49,5.56-26.32,12.45-37.94Z"/>
    </clipPath>
    <linearGradient id="linear-gradient-6" x1="-845.79" y1="5129.69" x2="-845.79" y2="4370.2" gradientTransform="translate(636.34 1705.19) rotate(-180) scale(.13)" gradientUnits="userSpaceOnUse">
      <stop offset="0" stop-color="#accc7f"/>
      <stop offset=".12" stop-color="#accb7e"/>
      <stop offset=".25" stop-color="#accb7e"/>
      <stop offset=".38" stop-color="#abca7e"/>
      <stop offset=".5" stop-color="#aaca7d"/>
      <stop offset=".62" stop-color="#aac97d"/>
      <stop offset=".75" stop-color="#a9c97c"/>
      <stop offset=".88" stop-color="#a9c87c"/>
      <stop offset="1" stop-color="#a8c87b"/>
    </linearGradient>
    <clipPath id="clippath-12">
      <rect class="cls-8" x="328" y="1190.67" width="309.33" height="76.21"/>
    </clipPath>
    <clipPath id="clippath-13">
      <rect class="cls-8" x="328" y="1190.67" width="309.33" height="77.33"/>
    </clipPath>
  </defs>
  <g class="cls-24">
    <g class="cls-12">
      <path class="cls-23" d="M622.86,767.12c.03-.11.08-.2.12-.3-.97-.32-1.95-.59-2.96-.81.37,1.17.75,2.34,1.15,3.5.35-.23.74-.42,1.16-.56.18-.61.34-1.22.53-1.82Z"/>
      <path class="cls-4" d="M1040.49,1084.18l-8.4,6.49c-2.1,1.01-4.21,1.99-6.32,2.98,1.14-.18,2.28-.37,3.42-.55,14.58-2.32,29.65-5.76,44.42-5.13,9.9.43,19.87,1.06,29.83,1.24-.53-1.3-1.07-2.59-1.61-3.88-3.96-9.33-8.21-18.89-13.69-27.3-.18-.19-.36-.38-.54-.57-.91-.25-1.83-.47-2.76-.67-5.76-.42-11.55-.47-17.32-.53-5.07-.05-10.13-.16-15.2-.28-.07,6.91-1.76,13.69-5.34,19.8-2.16,2.8-4.33,5.6-6.49,8.4Z"/>
      <path class="cls-11" d="M570.74,482.23v386.75c8.09-1.89,16.41-3.1,24.73-3.93-3.62-9.85-7.06-19.7-8.39-30.27-.44-3.49,3.53-5.35,6.33-4.82.61.12,1.21.25,1.81.39.19-17.52,1.2-35.16,6.6-51.91,1.3-4.02,7.67-5.02,9.34-1.02.12-.74.24-1.48.37-2.22.11-.58.29-1.07.52-1.5-1.4-3.97-2.66-7.98-3.75-12.02-.87-3.22,1.59-6.22,4.82-6.33,5.37-.17,10.37.84,15.01,2.7.03-.08.06-.15.09-.23.82-1.93,3.78-2.91,5.65-2.3.33.11.63.24.94.36.97-1.32,2.66-2.06,4.35-2.05,1.24-3.68,7.25-4.71,9.03-.86,2.54,5.5,5.8,10.53,9.27,15.44,1.39.14,2.74.87,3.68,2.36,3.11,4.94,5.98,10,8.69,15.15,2.42,3.79,4.62,7.72,6.38,11.93.23.55.32,1.09.32,1.61,4.47,9.58,8.56,19.36,12.63,29.13,1.96,4.69-5.17,8.36-8.36,4.86-.68-.75-1.38-1.5-2.07-2.26.24.75.49,1.5.72,2.25,1.23,3.92-2.61,6.8-6.15,6.15-.61-.11-1.22-.24-1.82-.37,5.6,3.86,10.49,9.64,13.97,14.17,3.11,4.05,6.01,8.23,8.77,12.51.63.04,1.25.08,1.88.12,17.92,1.07,35.62,3.91,53.31,6.8.28-.04.56-.07.84-.11,4.56-.63,9.11-1.25,13.66-1.92,4.41-1.19,8.82-1.65,13.23-1.41,2.9-5.78,6.97-10.75,12.14-14.64-3.13.52-6.29.93-9.48,1.2-5.07.44-6.64-6.99-2.52-9.32,5.83-3.29,11.81-6.25,17.87-9.06,4.94-3.87,10.82-6.42,17.31-7.63,2.71-.5,5.15,1.38,6.07,3.63.75-.85,1.5-1.71,2.26-2.56-3.53-2.19-2.61-9.12,2.71-9.34,2.24-.09,4.38.02,6.44.27,1.63-.54,3.5-.17,4.85.93,8.18,2.17,14.74,7.12,19.69,13.61,9.93-1.11,19.88-1.89,29.91-2.16,29.35-.78,59.64,1.45,88.19,8.48,23.86,5.87,50.35,17.23,66.03,37.33,29.16-.24,58.31.19,87.46,2.12,10.58.7,21.88,4.02,29.34,12.16,4.87,5.3,8.46,11.47,10.67,18.31,5.56,17.18-3.72,38.17-19.07,46.87-14.12,8-29.76,13.22-45.69,16.23,11.65,2.03,22.93,5.55,32.67,12.83,10.11,7.55,16.66,14.36,24.03,24.76,3.09,4.37,5.53,9.12,7.88,13.91,4.59,9.36,8.81,18.88,12.87,28.49,4.95,11.74,10.02,23.6,13.03,36.02,5.05,20.79,4.7,41.93-10.5,58.66-13.17,14.49-32.24,18.26-50.67,20.48-21.36,2.58-42.61-.11-63.99-.23-30.22,4.38-60.26,9.85-90.64,13.16-28.21,3.07-56.51,4.95-84.85,6.09.74.68,1.49,1.36,2.22,2.04,3.44,3.21.48,8.13-3.54,8.54-9.8,1-19.78-1.42-28.76-5.78-.87.45-1.74.9-2.62,1.33.03.06.06.11.1.17,2.23,4.1-2.52,9.86-6.84,6.84-1.15-.8-2.26-1.64-3.39-2.46-18.32,7.49-38.07,12.19-56.4,19.57.09.9.18,1.84.26,2.84.75,8.85-3.67,18.36-8.91,25.15-5.54,7.17-12.81,12.31-21.56,14.87-11.23,3.29-22.82,3.33-34.18.81-10.89-2.42-19.41-8.27-27.85-15.14-5.67-4.61-9.96-10.69-14.2-16.59-2.68-3.73-4.88-7.79-6.8-11.95-1.74-3.78-3.38-7.58-4.92-11.42-.82.11-1.63.23-2.45.35.34,1.92-.34,4.07-2.24,5.3-1.16.75-2.34,1.47-3.54,2.16,5.22-.54,8.53,6.09,3.54,9.16-.9.55-1.81,1.1-2.72,1.62.81,2.51-.66,5.97-3.33,6.97-1.4.52-2.8,1.03-4.2,1.53-1.24,8.51-4.98,16.51-11.47,22.99-5.18,5.14-11.28,8.7-18.31,10.67-7.35,1.98-14.71,1.98-22.06,0-12.13-1.92-24.31-3.9-36.2-7v255.49h1036.06V482.23H570.74Z"/>
      <path class="cls-9" d="M836.06,1191.45c-15.79,3.4-31.86,5.13-48,5.99.44,2.22.68,4.49.75,6.78,9.93-1.43,19.86-2.86,29.79-3.91.64-.07,1.21,0,1.73.15,6.38-2.1,12.72-4.28,18.95-6.72-.92-.75-1.82-1.53-2.74-2.29-.16,0-.32,0-.48,0Z"/>
    </g>
  </g>
  <g class="cls-19">
    <g class="cls-16">
      <g class="cls-3">
        <g class="cls-14">
          <g class="cls-1">
            <g class="cls-2">
              <path class="cls-13" d="M601.29,1313.99l247.87,133.75,120.81-223.89-247.88-133.75-120.81,223.89Z"/>
            </g>
          </g>
        </g>
      </g>
    </g>
  </g>
  <g class="cls-15">
    <g>
      <path class="cls-20" d="M385.88,998.76c-11.93,0-22.47-2.05-31.6-6.15-9.13-4.11-16.32-9.99-21.58-17.65-5.27-7.67-7.97-17-8.13-28h31.35c.3,7.6,3.05,13.99,8.23,19.17,5.19,5.18,12.35,7.77,21.48,7.77,7.9,0,14.17-1.9,18.81-5.69,4.64-3.79,6.96-8.86,6.96-15.21s-2.05-11.83-6.15-15.54c-4.1-3.72-9.56-6.74-16.38-9.06-6.81-2.32-14.08-4.8-21.81-7.44-12.54-4.33-22.1-9.9-28.69-16.71-6.57-6.82-9.85-15.88-9.85-27.17-.16-9.59,2.13-17.84,6.83-24.73,4.72-6.89,11.19-12.23,19.4-16.02s17.65-5.69,28.33-5.69,20.39,1.94,28.67,5.81c8.28,3.86,14.78,9.28,19.5,16.25,4.72,6.96,7.24,15.24,7.56,24.83h-31.81c-.16-5.72-2.36-10.79-6.63-15.21-4.25-4.42-10.18-6.63-17.77-6.63-6.5-.15-11.96,1.44-16.38,4.77-4.41,3.33-6.6,8.17-6.6,14.5,0,5.43,1.7,9.73,5.1,12.9,3.42,3.17,8.06,5.84,13.94,8.02,5.89,2.17,12.63,4.49,20.21,6.96,8.04,2.78,15.39,6.03,22.04,9.75,6.67,3.71,12.01,8.63,16.02,14.75,4.03,6.11,6.04,13.97,6.04,23.56,0,8.52-2.17,16.41-6.5,23.69-4.33,7.27-10.76,13.1-19.27,17.52-8.52,4.42-18.96,6.63-31.33,6.63Z"/>
      <path class="cls-21" d="M456.68,995.97v-167.17h29.73v69.65c3.88-6.34,9.09-11.34,15.67-14.98,6.58-3.64,14.13-5.46,22.65-5.46,14.23,0,25.26,4.49,33.08,13.48,7.82,8.97,11.73,22.13,11.73,39.46v65.02h-29.5v-62.23c0-9.9-1.97-17.48-5.92-22.75-3.95-5.26-10.18-7.9-18.69-7.9s-15.29,2.95-20.79,8.83c-5.49,5.88-8.23,14.08-8.23,24.6v59.44h-29.73Z"/>
      <path class="cls-21" d="M586.23,995.97v-115.17h26.48l2.79,21.6c4.18-7.43,9.86-13.35,17.06-17.77,7.19-4.42,15.67-6.63,25.42-6.63v31.35h-8.35c-6.5,0-12.31,1.01-17.42,3.02-5.11,2.02-9.1,5.5-11.96,10.46-2.86,4.95-4.29,11.83-4.29,20.65v52.48h-29.73Z"/>
      <path class="cls-21" d="M720.44,998.76c-11.61,0-21.91-2.48-30.88-7.44-8.97-4.96-16.02-11.92-21.13-20.9-5.11-8.97-7.67-19.34-7.67-31.1s2.51-22.53,7.54-31.81c5.04-9.29,12.01-16.53,20.9-21.71,8.9-5.19,19.4-7.79,31.48-7.79,11.29,0,21.27,2.48,29.94,7.44s15.44,11.74,20.31,20.33c4.88,8.58,7.31,18.14,7.31,28.67,0,1.7-.04,3.47-.13,5.33-.07,1.86-.18,3.8-.33,5.81h-87.52c.61,8.97,3.74,16.02,9.4,21.13,5.65,5.11,12.5,7.67,20.54,7.67,6.04,0,11.11-1.35,15.21-4.06,4.11-2.72,7.17-6.25,9.17-10.58h30.19c-2.17,7.28-5.77,13.9-10.79,19.85-5.03,5.96-11.22,10.65-18.58,14.06-7.35,3.4-15.67,5.1-24.96,5.1ZM720.69,902.16c-7.28,0-13.71,2.06-19.29,6.17-5.57,4.1-9.13,10.33-10.67,18.69h57.35c-.47-7.58-3.27-13.61-8.38-18.1-5.1-4.5-11.44-6.75-19.02-6.75Z"/>
      <path class="cls-21" d="M791.71,995.97v-115.17h26.25l2.54,15.56c3.72-5.57,8.64-10.02,14.75-13.35,6.11-3.33,13.19-5,21.25-5,17.8,0,30.42,6.89,37.85,20.67,4.17-6.34,9.77-11.38,16.81-15.08,7.05-3.72,14.76-5.58,23.1-5.58,15.03,0,26.56,4.49,34.6,13.48,8.05,8.97,12.08,22.13,12.08,39.46v65.02h-29.73v-62.23c0-9.9-1.9-17.48-5.69-22.75-3.79-5.26-9.64-7.9-17.52-7.9s-14.52,2.95-19.4,8.83c-4.88,5.88-7.31,14.08-7.31,24.6v59.44h-29.73v-62.23c0-9.9-1.94-17.48-5.81-22.75-3.86-5.26-9.81-7.9-17.85-7.9s-14.29,2.95-19.17,8.83c-4.88,5.88-7.31,14.08-7.31,24.6v59.44h-29.73Z"/>
      <path class="cls-20" d="M319.92,1186.16l59.44-162.54h33.44l59.44,162.54h-31.56l-13-37.6h-63.4l-13.23,37.6h-31.13ZM372.4,1125.33h47.15l-23.69-67.56-23.46,67.56Z"/>
      <path class="cls-21" d="M528.43,1188.95c-10.21,0-19.19-1.66-26.94-4.98-7.74-3.33-13.93-7.94-18.58-13.83-4.64-5.89-7.42-12.7-8.33-20.44h29.94c.93,4.49,3.44,8.32,7.54,11.5,4.11,3.17,9.42,4.75,15.92,4.75s11.26-1.31,14.27-3.94c3.03-2.64,4.54-5.66,4.54-9.06,0-4.94-2.18-8.3-6.52-10.08-4.33-1.79-10.37-3.53-18.1-5.23-4.95-1.08-9.97-2.4-15.08-3.94-5.11-1.55-9.8-3.53-14.06-5.94-4.25-2.4-7.7-5.5-10.33-9.29-2.63-3.79-3.94-8.47-3.94-14.04,0-10.22,4.06-18.81,12.19-25.77,8.13-6.97,19.54-10.46,34.25-10.46,13.63,0,24.5,3.18,32.63,9.52,8.13,6.35,12.96,15.1,14.52,26.25h-28.1c-1.71-8.51-8.14-12.77-19.27-12.77-5.57,0-9.87,1.08-12.9,3.25-3.02,2.17-4.52,4.88-4.52,8.13s2.24,6.11,6.73,8.13c4.5,2.02,10.46,3.87,17.88,5.56,8.05,1.86,15.45,3.92,22.19,6.17,6.73,2.24,12.11,5.56,16.13,9.98,4.03,4.42,6.04,10.72,6.04,18.92.15,7.13-1.71,13.56-5.58,19.29-3.86,5.72-9.43,10.21-16.71,13.46-7.28,3.25-15.87,4.88-25.77,4.88Z"/>
      <path class="cls-21" d="M659.38,1188.95c-8.67,0-16.25-1.63-22.75-4.88s-11.77-7.82-15.79-13.71l-3.25,15.79h-26.48v-167.17h29.73v68.48c3.71-5.09,8.61-9.58,14.73-13.46,6.13-3.88,14.06-5.81,23.81-5.81,10.83,0,20.51,2.64,29.02,7.9,8.51,5.27,15.24,12.47,20.19,21.6,4.96,9.13,7.44,19.49,7.44,31.1s-2.48,21.95-7.44,31c-4.95,9.06-11.68,16.18-20.19,21.38-8.52,5.18-18.19,7.77-29.02,7.77ZM653.11,1162.93c9.44,0,17.26-3.17,23.46-9.5,6.19-6.34,9.29-14.55,9.29-24.63s-3.1-18.33-9.29-24.83c-6.2-6.5-14.02-9.75-23.46-9.75s-17.45,3.22-23.56,9.65c-6.11,6.42-9.17,14.66-9.17,24.71s3.05,18.3,9.17,24.73c6.11,6.42,13.96,9.63,23.56,9.63Z"/>
      <path class="cls-21" d="M877.86,1053.12c-5.42,0-9.87-1.63-13.35-4.88-3.47-3.25-5.21-7.35-5.21-12.31s1.73-9,5.21-12.17c3.48-3.18,7.94-4.77,13.35-4.77s9.88,1.59,13.35,4.77c3.48,3.17,5.23,7.22,5.23,12.17s-1.74,9.06-5.23,12.31c-3.47,3.25-7.93,4.88-13.35,4.88ZM863,1186.16v-115.17h29.73v115.17h-29.73Z"/>
      <path class="cls-21" d="M956.58,1186.16v-162.54h65.25c16.86,0,29.74,3.91,38.65,11.73,8.9,7.82,13.35,17.85,13.35,30.08,0,10.21-2.75,18.38-8.25,24.5-5.49,6.11-12.18,10.25-20.08,12.42,9.29,1.85,16.95,6.45,22.98,13.81,6.04,7.35,9.06,15.9,9.06,25.65,0,12.85-4.65,23.45-13.94,31.81-9.28,8.36-22.43,12.54-39.46,12.54h-67.56ZM986.28,1091.89h31.13c8.36,0,14.78-1.93,19.27-5.79,4.48-3.88,6.73-9.38,6.73-16.5s-2.21-12.18-6.63-16.13c-4.41-3.96-11.02-5.94-19.83-5.94h-30.67v44.35ZM986.28,1162.02h33.21c8.82,0,15.67-2.05,20.54-6.15,4.89-4.11,7.33-9.88,7.33-17.31s-2.56-13.54-7.67-17.88c-5.11-4.33-12-6.5-20.67-6.5h-32.75v47.83Z"/>
      <path class="cls-21" d="M1162.51,1188.95c-15.32,0-28.71-3.48-40.17-10.44-11.46-6.97-20.36-16.69-26.71-29.15-6.33-12.47-9.5-26.98-9.5-43.54s3.28-31.46,9.85-44.23c6.58-12.78,15.95-22.76,28.1-29.96,12.15-7.19,26.58-10.79,43.29-10.79,19.04,0,34.83,4.57,47.38,13.71,12.54,9.13,20.67,21.74,24.38,37.83h-33.21c-2.47-7.58-6.96-13.5-13.46-17.75-6.5-4.26-14.86-6.4-25.08-6.4-16.25,0-28.79,5.15-37.6,15.44-8.82,10.29-13.23,24.42-13.23,42.38s4.36,31.85,13.1,41.69c8.75,9.82,20.63,14.73,35.65,14.73s25.81-3.98,33.31-11.96c7.51-7.97,12.04-18.46,13.58-31.46h-41.08v-22.29h71.04v89.4h-27.4l-2.33-21.35c-5.27,7.74-11.84,13.7-19.73,17.88-7.89,4.18-17.95,6.27-30.19,6.27Z"/>
      <g class="cls-5">
        <path class="cls-21" d="M827.54,1051.15c1.6,8.01-2.41,16.28-8.18,22.05-5.77,5.78-13.16,9.61-20.2,13.73-7.05,4.13-14.1,8.82-18.52,15.69-3.85,5.97-5.43,13.13-6.23,20.19-1.01,8.57-.87,17.55,1.85,25.61,1.98-4.86,4.56-9.51,7.5-13.86,5.77-8.55,12.88-16.1,19.94-23.61,8.27-8.77,16.52-17.53,24.79-26.3-8.56,16.03-21.81,28.95-33.01,43.26-11.2,14.31-20.76,31.4-19.71,49.54.83-9.29,8.36-16.66,16.54-21.14,8.18-4.48,17.34-6.99,25.39-11.68,15.23-8.87,25.48-25.78,26.27-43.4.81-17.81-7.32-34.76-16.43-50.08Z"/>
      </g>
      <g class="cls-6">
        <g class="cls-7">
          <path class="cls-18" d="M769.94,1058.83v95.7h-54.07v-95.7h54.07Z"/>
        </g>
      </g>
      <g class="cls-17">
        <g class="cls-22">
          <g>
            <path class="cls-21" d="M332.55,1247.86v-41.25h7.54v35.35h18.27v5.9h-25.81Z"/>
            <path class="cls-21" d="M381.89,1214.09c-1.38,0-2.51-.41-3.4-1.23-.88-.83-1.31-1.88-1.31-3.13s.44-2.3,1.31-3.1c.89-.8,2.02-1.21,3.4-1.21s2.5.41,3.38,1.21c.89.81,1.33,1.84,1.33,3.1s-.45,2.29-1.33,3.13c-.88.82-2,1.23-3.38,1.23ZM378.12,1247.86v-29.23h7.54v29.23h-7.54Z"/>
            <path class="cls-21" d="M406.53,1247.86v-29.23h6.67l.65,3.94c.94-1.4,2.19-2.53,3.73-3.38,1.55-.84,3.35-1.27,5.4-1.27,4.53,0,7.73,1.75,9.6,5.25,1.07-1.61,2.49-2.89,4.27-3.83,1.79-.94,3.75-1.42,5.88-1.42,3.8,0,6.73,1.14,8.77,3.42,2.05,2.28,3.08,5.62,3.08,10.02v16.5h-7.56v-15.79c0-2.51-.48-4.44-1.44-5.77-.96-1.34-2.44-2.02-4.44-2.02s-3.7.75-4.94,2.25c-1.24,1.49-1.85,3.57-1.85,6.25v15.08h-7.54v-15.79c0-2.51-.49-4.44-1.48-5.77-.97-1.34-2.48-2.02-4.52-2.02s-3.64.75-4.88,2.25c-1.24,1.49-1.85,3.57-1.85,6.25v15.08h-7.54Z"/>
            <path class="cls-21" d="M478.79,1214.09c-1.38,0-2.51-.41-3.4-1.23-.88-.83-1.31-1.88-1.31-3.13s.44-2.3,1.31-3.1c.89-.8,2.02-1.21,3.4-1.21s2.5.41,3.38,1.21c.89.81,1.33,1.84,1.33,3.1s-.45,2.29-1.33,3.13c-.88.82-2,1.23-3.38,1.23ZM475.02,1247.86v-29.23h7.54v29.23h-7.54Z"/>
            <path class="cls-21" d="M516.45,1247.86c-3.07,0-5.53-.74-7.38-2.23-1.83-1.5-2.75-4.15-2.75-7.96v-12.73h-5.02v-6.31h5.02l.88-7.83h6.67v7.83h7.9v6.31h-7.9v12.77c0,1.42.3,2.4.9,2.94.61.53,1.67.79,3.17.79h3.65v6.42h-5.13Z"/>
            <path class="cls-21" d="M554.65,1248.57c-2.96,0-5.58-.63-7.85-1.88-2.28-1.26-4.06-3.03-5.35-5.31-1.29-2.28-1.94-4.91-1.94-7.9s.64-5.72,1.92-8.08c1.28-2.36,3.04-4.19,5.29-5.5,2.26-1.32,4.93-1.98,8-1.98,2.86,0,5.39.64,7.58,1.9,2.21,1.25,3.93,2.97,5.17,5.15,1.23,2.18,1.85,4.6,1.85,7.27,0,.43-.02.89-.04,1.35-.02.47-.04.97-.08,1.48h-22.21c.15,2.28.94,4.07,2.38,5.38,1.44,1.29,3.19,1.94,5.23,1.94,1.53,0,2.81-.34,3.85-1.02,1.04-.69,1.82-1.59,2.33-2.69h7.67c-.56,1.85-1.47,3.53-2.75,5.04-1.28,1.5-2.85,2.69-4.73,3.56-1.86.86-3.97,1.29-6.31,1.29ZM554.72,1224.05c-1.85,0-3.48.52-4.9,1.56s-2.32,2.63-2.71,4.75h14.54c-.11-1.93-.82-3.46-2.13-4.6-1.29-1.14-2.9-1.71-4.81-1.71Z"/>
            <path class="cls-21" d="M602.1,1248.57c-2.75,0-5.21-.67-7.38-2-2.16-1.33-3.86-3.16-5.13-5.48-1.25-2.32-1.88-4.95-1.88-7.9s.63-5.58,1.88-7.88c1.26-2.3,2.97-4.11,5.13-5.42,2.17-1.32,4.63-1.98,7.38-1.98,2.19,0,4.11.42,5.77,1.25,1.65.82,2.99,1.97,4.02,3.46v-17.21h7.54v42.44h-6.73l-.81-4.19c-.95,1.29-2.2,2.43-3.75,3.42-1.56.98-3.57,1.48-6.04,1.48ZM603.68,1241.96c2.44,0,4.44-.81,5.98-2.44,1.55-1.64,2.33-3.73,2.33-6.29s-.78-4.63-2.33-6.25c-1.54-1.64-3.54-2.46-5.98-2.46s-4.38.81-5.96,2.42c-1.57,1.61-2.35,3.7-2.35,6.25s.78,4.64,2.35,6.29c1.58,1.66,3.57,2.48,5.96,2.48Z"/>
          </g>
        </g>
      </g>
    </g>
  </g>
  <path class="cls-10" d="M670.62,764.24s-55.98,38.35-33.6,98.12c0,0,54.5-28.32,33.6-98.12Z"/>
  <path class="cls-10" d="M653.37,1207.39s5.87,31.87,36.29,33.71c0,0-1.78-29.28-36.29-33.71Z"/>
</svg>